<svg
  xmlns="http://www.w3.org/2000/svg"
  viewBox="0 0 24 24"
  width="24px"
  height="24px"
  fill="currentColor"
>
  <path d="M12 .297c-6.63 0-12 5.373-12 12 0 5.302 3.438 9.8 8.205 11.385.6.113.82-.258.82-.577 0-.285-.01-1.04-.015-2.04-3.338.725-4.042-1.61-4.042-1.61-.546-1.387-1.332-1.758-1.332-1.758-1.088-.744.084-.729.084-.729 1.205.085 1.84 1.237 1.84 1.237 1.07 1.835 2.809 1.305 3.495.998.107-.775.418-1.305.76-1.605-2.665-.305-5.467-1.335-5.467-5.93 0-1.31.47-2.38 1.236-3.22-.124-.303-.536-1.523.117-3.176 0 0 1.01-.323 3.3 1.23.96-.267 1.98-.399 3-.405 1.02.006 2.04.138 3 .405 2.28-1.553 3.29-1.23 3.29-1.23.655 1.653.243 2.873.12 3.176.77.84 1.23 1.91 1.23 3.22 0 4.61-2.81 5.62-5.485 5.92.43.37.815 1.102.815 2.22 0 1.605-.015 2.896-.015 3.29 0 .322.21.694.825.577 4.765-1.585 8.2-6.083 8.2-11.385 0-6.627-5.373-12-12-12z" />
</svg>
