<svg
  xmlns="http://www.w3.org/2000/svg"
  viewBox="0 0 24 24"
  width="24px"
  height="24px"
  fill="currentColor"
>
  <path d="M22.23 0H1.77C.79 0 0 .774 0 1.72v20.56C0 23.23.79 24 1.77 24h20.46C23.21 24 24 23.23 24 22.28V1.72C24 .774 23.21 0 22.23 0zM7.19 20.45H3.56V9H7.2v11.45zm-1.82-13c-1.14 0-2.06-.93-2.06-2.07 0-1.14.92-2.06 2.06-2.06 1.15 0 2.07.92 2.07 2.06 0 1.14-.92 2.07-2.07 2.07zM20.45 20.45h-3.64v-5.6c0-1.34-.02-3.06-1.86-3.06-1.86 0-2.15 1.45-2.15 2.96v5.7h-3.64V9h3.5v1.56h.05c.49-.93 1.68-1.9 3.46-1.9 3.7 0 4.38 2.43 4.38 5.58v6.21h-.01z" />
</svg>
